<svg width="11" height="11" viewBox="0 0 11 11" fill="none" xmlns="http://www.w3.org/2000/svg">
<path opacity="0.1" fill-rule="evenodd" clip-rule="evenodd" d="M0 5.34186C0 2.39163 2.39163 0 5.34186 0C8.2921 0 10.6837 2.39163 10.6837 5.34186C10.6837 8.2921 8.2921 10.6837 5.34186 10.6837C2.39163 10.6837 0 8.2921 0 5.34186Z" fill="white"/>
<path fill-rule="evenodd" clip-rule="evenodd" d="M5.18184 4.34192L5.19305 4.52676L5.00623 4.50413C4.32618 4.41737 3.73207 4.12313 3.22764 3.62897L2.98103 3.38377L2.91751 3.56484C2.78299 3.96847 2.86893 4.39474 3.14917 4.68143C3.29863 4.83986 3.26501 4.8625 3.00719 4.76819C2.91751 4.73801 2.83904 4.71538 2.83157 4.72669C2.80541 4.7531 2.89509 5.09638 2.96608 5.23218C3.06323 5.42079 3.26127 5.60563 3.47799 5.71503L3.66108 5.80179L3.44436 5.80556C3.23511 5.80556 3.22764 5.80933 3.25006 5.88855C3.32479 6.13375 3.61998 6.39403 3.94879 6.5072L4.18045 6.58642L3.97868 6.70713C3.67976 6.88065 3.32853 6.97873 2.97729 6.98628C2.80915 6.99005 2.6709 7.00514 2.6709 7.01645C2.6709 7.05418 3.12675 7.26542 3.39205 7.34841C4.18793 7.59361 5.13327 7.48799 5.84321 7.06927C6.34764 6.77126 6.85207 6.17901 7.08747 5.60563C7.21451 5.30008 7.34155 4.74178 7.34155 4.47395C7.34155 4.30043 7.35276 4.2778 7.56201 4.07032C7.68531 3.94961 7.80115 3.81758 7.82357 3.77986C7.86093 3.70819 7.85719 3.70819 7.66663 3.77231C7.34903 3.88548 7.30419 3.87039 7.46112 3.70064C7.57695 3.57993 7.71521 3.36114 7.71521 3.29701C7.71521 3.28569 7.65916 3.30455 7.59564 3.3385C7.52838 3.37623 7.37892 3.43281 7.26682 3.46676L7.06505 3.53089L6.88196 3.4064C6.78108 3.3385 6.63909 3.26306 6.56436 3.24043C6.37379 3.18761 6.08234 3.19516 5.91046 3.25551C5.4434 3.42527 5.14821 3.86285 5.18184 4.34192Z" fill="white"/>
</svg>
