<svg width="11" height="11" viewBox="0 0 11 11" fill="none" xmlns="http://www.w3.org/2000/svg">
<path opacity="0.1" fill-rule="evenodd" clip-rule="evenodd" d="M0 5.34186C0 2.39163 2.39163 0 5.34186 0C8.2921 0 10.6837 2.39163 10.6837 5.34186C10.6837 8.2921 8.2921 10.6837 5.34186 10.6837C2.39163 10.6837 0 8.2921 0 5.34186Z" fill="white"/>
<path fill-rule="evenodd" clip-rule="evenodd" d="M8.19091 5.3379C8.19091 5.53058 8.17129 5.72298 8.13277 5.91053C8.0952 6.09362 8.03955 6.27338 7.96666 6.44522C7.89543 6.61402 7.80709 6.77668 7.70387 6.92837C7.60218 7.07911 7.48503 7.22053 7.35635 7.34944C7.22739 7.47779 7.08549 7.59461 6.93482 7.69673C6.78263 7.79924 6.61973 7.88745 6.45083 7.95901C6.27875 8.03152 6.09858 8.08709 5.91564 8.12459C5.72784 8.16322 5.53474 8.18294 5.34179 8.18294C5.14869 8.18294 4.9556 8.16322 4.76807 8.12459C4.58485 8.08709 4.40469 8.03152 4.23274 7.95901C4.06385 7.88745 3.9008 7.79924 3.74861 7.69673C3.59794 7.59462 3.45604 7.47779 3.32736 7.34944C3.19854 7.22053 3.08139 7.07911 2.97956 6.92837C2.87689 6.77668 2.78841 6.614 2.7169 6.44522C2.644 6.27338 2.58822 6.09361 2.55052 5.91053C2.5124 5.72298 2.49292 5.53058 2.49292 5.3379C2.49292 5.14509 2.51239 4.95227 2.55053 4.76513C2.58823 4.58204 2.64401 4.402 2.71692 4.23045C2.78842 4.06152 2.8769 3.89872 2.97957 3.74701C3.0814 3.59615 3.19855 3.455 3.32737 3.32595C3.45605 3.19758 3.59795 3.08104 3.74862 2.97908C3.90081 2.87613 4.06386 2.78793 4.23275 2.71624C4.4047 2.64357 4.58485 2.58788 4.76808 2.55065C4.95561 2.51231 5.1487 2.49286 5.3418 2.49286C5.53475 2.49286 5.72784 2.51231 5.91565 2.55065C6.09859 2.58789 6.27875 2.64358 6.45085 2.71624C6.61973 2.78792 6.78264 2.87613 6.93483 2.97908C7.0855 3.08104 7.22741 3.19758 7.35636 3.32595C7.48505 3.455 7.60219 3.59615 7.70388 3.74701C7.80709 3.89872 7.89543 4.06154 7.96666 4.23045C8.03955 4.402 8.0952 4.58204 8.13277 4.76513C8.17129 4.95227 8.19091 5.14509 8.19091 5.3379ZM4.30367 3.14035C3.62519 3.46029 3.1188 4.08458 2.9609 4.83696C3.02504 4.83752 4.03893 4.8503 5.2071 4.54037C4.786 3.79326 4.33609 3.18357 4.30367 3.14035ZM5.40868 4.91449C4.15593 5.289 2.9538 5.26205 2.91068 5.26039C2.90998 5.2865 2.90873 5.31178 2.90873 5.3379C2.90873 5.96205 3.14453 6.53106 3.53212 6.9613C3.53128 6.96004 4.19711 5.78049 5.5101 5.35652C5.54182 5.34596 5.5741 5.33651 5.60609 5.32734C5.54503 5.18927 5.47838 5.0509 5.40868 4.91449ZM6.9486 3.51446C6.52024 3.13729 5.9578 2.90851 5.34178 2.90851C5.14409 2.90851 4.95224 2.93241 4.76847 2.97658C4.80491 3.02549 5.26192 3.63088 5.67802 4.39381C6.59607 4.05013 6.94261 3.52335 6.9486 3.51446ZM5.77194 5.72993C5.76652 5.73172 5.7611 5.73327 5.75581 5.73521C4.32027 6.23493 3.85147 7.24203 3.8464 7.25302C4.25945 7.57378 4.77753 7.76729 5.34179 7.76729C5.67873 7.76729 5.99967 7.69879 6.29168 7.57476C6.25565 7.36249 6.11431 6.61845 5.77194 5.72993ZM6.70138 7.35277C7.24769 6.98464 7.63569 6.40007 7.74392 5.72297C7.69384 5.70686 7.01314 5.49167 6.22781 5.6174C6.54695 6.49314 6.67661 7.20635 6.70138 7.35277ZM5.8653 4.75583C5.92177 4.87169 5.97645 4.98961 6.02694 5.10813C6.0449 5.15064 6.06243 5.19232 6.07953 5.23399C6.91535 5.12896 7.73879 5.30566 7.774 5.31288C7.76843 4.73694 7.56211 4.20835 7.22073 3.79452C7.21614 3.80104 6.82591 4.36408 5.8653 4.75583Z" fill="white"/>
</svg>
