<svg width="11" height="11" viewBox="0 0 11 11" fill="none" xmlns="http://www.w3.org/2000/svg">
<path opacity="0.1" fill-rule="evenodd" clip-rule="evenodd" d="M0 5.34186C0 2.39163 2.39163 0 5.34186 0C8.2921 0 10.6837 2.39163 10.6837 5.34186C10.6837 8.2921 8.2921 10.6837 5.34186 10.6837C2.39163 10.6837 0 8.2921 0 5.34186Z" fill="white"/>
<path fill-rule="evenodd" clip-rule="evenodd" d="M5.34218 2.49286C4.56843 2.49286 4.47133 2.49624 4.16743 2.51007C3.86413 2.52396 3.6571 2.57198 3.47595 2.64243C3.28857 2.7152 3.12962 2.81254 2.97126 2.97096C2.81278 3.12932 2.71544 3.28827 2.64243 3.47559C2.5718 3.6568 2.52372 3.86389 2.51007 4.16708C2.49648 4.47097 2.49292 4.56814 2.49292 5.34188C2.49292 6.11563 2.49636 6.21244 2.51013 6.51633C2.52408 6.81964 2.5721 7.02667 2.64249 7.20782C2.71532 7.3952 2.81266 7.55415 2.97108 7.71251C3.12938 7.87099 3.28833 7.96856 3.4756 8.04133C3.65687 8.11179 3.86395 8.1598 4.1672 8.17369C4.47109 8.18752 4.56814 8.19091 5.34183 8.19091C6.11563 8.19091 6.21244 8.18752 6.51634 8.17369C6.81964 8.1598 7.0269 8.11179 7.20817 8.04133C7.3955 7.96856 7.55421 7.87099 7.71251 7.71251C7.87099 7.55415 7.96833 7.3952 8.04134 7.20787C8.11137 7.02667 8.15945 6.81958 8.1737 6.51639C8.18735 6.2125 8.19091 6.11563 8.19091 5.34188C8.19091 4.56814 8.18735 4.47103 8.1737 4.16714C8.15945 3.86383 8.11137 3.6568 8.04134 3.47565C7.96833 3.28827 7.87099 3.12932 7.71251 2.97096C7.55403 2.81248 7.39556 2.71514 7.208 2.64243C7.02637 2.57198 6.81922 2.52396 6.51592 2.51007C6.21202 2.49624 6.11528 2.49286 5.34129 2.49286H5.34218ZM5.08659 3.00627C5.16244 3.00615 5.24708 3.00627 5.34217 3.00627C6.10286 3.00627 6.19302 3.009 6.49341 3.02265C6.77119 3.03535 6.92195 3.08177 7.02238 3.12076C7.15534 3.1724 7.25012 3.23413 7.34978 3.33385C7.4495 3.43356 7.51123 3.52853 7.56298 3.66148C7.60198 3.76179 7.64845 3.91256 7.6611 4.19034C7.67475 4.49067 7.67772 4.58089 7.67772 5.34122C7.67772 6.10156 7.67475 6.19177 7.6611 6.49211C7.64839 6.76989 7.60198 6.92065 7.56298 7.02096C7.51134 7.15391 7.4495 7.24858 7.34978 7.34824C7.25007 7.44796 7.1554 7.50969 7.02238 7.56132C6.92207 7.6005 6.77119 7.6468 6.49341 7.6595C6.19308 7.67315 6.10286 7.67612 5.34217 7.67612C4.58142 7.67612 4.49126 7.67315 4.19093 7.6595C3.91315 7.64668 3.76239 7.60026 3.6619 7.56126C3.52894 7.50963 3.43398 7.4479 3.33426 7.34818C3.23454 7.24847 3.17282 7.15374 3.12106 7.02072C3.08206 6.92041 3.03559 6.76965 3.02294 6.49187C3.00929 6.19154 3.00656 6.10132 3.00656 5.34051C3.00656 4.5797 3.00929 4.48996 3.02294 4.18962C3.03565 3.91184 3.08206 3.76108 3.12106 3.66065C3.1727 3.5277 3.23454 3.43273 3.33426 3.33302C3.43398 3.2333 3.52894 3.17157 3.6619 3.11981C3.76233 3.08064 3.91315 3.03434 4.19093 3.02158C4.45375 3.00971 4.5556 3.00615 5.08659 3.00556V3.00627ZM6.86296 3.47933C6.67421 3.47933 6.52107 3.63228 6.52107 3.82109C6.52107 4.00984 6.67421 4.16297 6.86296 4.16297C7.0517 4.16297 7.20484 4.00984 7.20484 3.82109C7.20484 3.63234 7.0517 3.47933 6.86296 3.47933ZM5.34219 3.87878C4.53419 3.87878 3.87909 4.53388 3.87909 5.34188C3.87909 6.14987 4.53419 6.80467 5.34219 6.80467C6.15018 6.80467 6.80504 6.14987 6.80504 5.34188C6.80504 4.53388 6.15018 3.87878 5.34219 3.87878ZM5.34218 4.3922C5.86663 4.3922 6.29185 4.81736 6.29185 5.34188C6.29185 5.86633 5.86663 6.29155 5.34218 6.29155C4.81766 6.29155 4.3925 5.86633 4.3925 5.34188C4.3925 4.81736 4.81766 4.3922 5.34218 4.3922Z" fill="white"/>
</svg>
