<svg width="11" height="11" viewBox="0 0 11 11" fill="none" xmlns="http://www.w3.org/2000/svg">
<path opacity="0.1" fill-rule="evenodd" clip-rule="evenodd" d="M0 5.34186C0 2.39163 2.39163 0 5.34186 0C8.2921 0 10.6837 2.39163 10.6837 5.34186C10.6837 8.2921 8.2921 10.6837 5.34186 10.6837C2.39163 10.6837 0 8.2921 0 5.34186Z" fill="white"/>
<path fill-rule="evenodd" clip-rule="evenodd" d="M7.56805 3.50545C7.81322 3.57272 8.00631 3.77096 8.07183 4.02269C8.19091 4.47894 8.19091 5.43089 8.19091 5.43089C8.19091 5.43089 8.19091 6.38282 8.07183 6.83909C8.00631 7.09083 7.81322 7.28906 7.56805 7.35637C7.12373 7.47861 5.34191 7.47861 5.34191 7.47861C5.34191 7.47861 3.5601 7.47861 3.11575 7.35637C2.87057 7.28906 2.67749 7.09083 2.61196 6.83909C2.49292 6.38282 2.49292 5.43089 2.49292 5.43089C2.49292 5.43089 2.49292 4.47894 2.61196 4.02269C2.67749 3.77096 2.87057 3.57272 3.11575 3.50545C3.5601 3.38318 5.34191 3.38318 5.34191 3.38318C5.34191 3.38318 7.12373 3.38318 7.56805 3.50545ZM4.80773 4.62959V6.41022L6.23223 5.51994L4.80773 4.62959Z" fill="white"/>
</svg>
