<svg width="6" height="6" viewBox="0 0 6 6" fill="none" xmlns="http://www.w3.org/2000/svg">
<g clip-path="url(#clip0_1378_595)">
<path fill-rule="evenodd" clip-rule="evenodd" d="M5.68583 0.323714C5.75384 0.391732 5.77689 0.492701 5.74511 0.583493L3.99231 5.59149C3.95839 5.6884 3.86876 5.75478 3.76617 5.75896C3.66359 5.76315 3.56885 5.70429 3.52715 5.61047L2.56466 3.44488L0.39907 2.48239C0.30525 2.44069 0.24639 2.34595 0.250576 2.24337C0.254761 2.14078 0.321143 2.05115 0.418048 2.01723L5.42605 0.264431C5.51684 0.232654 5.61781 0.255696 5.68583 0.323714ZM3.05303 3.31063L3.72827 4.82992L4.90994 1.45372L3.05303 3.31063ZM4.55582 1.0996L1.17962 2.28127L2.69891 2.95651L4.55582 1.0996Z" fill="white"/>
</g>
<defs>
<clipPath id="clip0_1378_595">
<rect width="6.0096" height="6.0096" fill="white"/>
</clipPath>
</defs>
</svg>
